<svg width="150" height="143" viewBox="0 0 150 143" fill="none" xmlns="http://www.w3.org/2000/svg">
<path d="M143.465 45.1556C140.684 26.8539 133.445 3.45153 110.976 4.53637C97.6487 5.1799 84.7012 15.3127 72.5862 19.9862C56.816 26.0698 40.6311 25.4544 24.1951 23.1264C23.965 23.0948 23.7595 23.1264 23.5557 23.1581C23.3396 22.6359 22.9216 22.1893 22.2453 22.0011C8.40019 18.1541 4.80629 37.1731 4.53402 46.6906C4.13353 60.8041 7.19519 81.1841 17.6449 91.6756C17.9101 91.9411 18.214 92.0571 18.5162 92.0888C19.0519 92.3754 19.6983 92.4914 20.4466 92.3103C22.7986 91.7354 25.0733 91.2202 27.4991 91.0655C28.4652 91.004 29.6509 91.0532 30.5854 90.7965C30.9262 90.7033 31.1352 90.6048 31.3267 90.5152C31.0825 95.3504 32.9409 100.843 33.7788 105.538C34.9065 111.867 36.3363 117.976 38.8886 123.892C43.3661 134.275 53.872 138.611 64.7029 138.125C83.7702 137.269 77.5397 111.178 74.6186 97.5658C95.2528 100.562 113.05 124.685 132.781 104.546C146.746 90.2919 146.226 63.3272 143.467 45.1591L143.465 45.1556Z" stroke="#74A6AC" stroke-width="9" stroke-miterlimit="10"/>
<path d="M115.936 43.5724C115.948 44.0562 116.218 45.1725 116.539 45.5679C116.613 45.6578 116.657 45.7677 116.676 45.8833C117.067 48.1514 117.346 50.4396 117.591 52.632C117.623 52.9161 117.666 52.9018 117.684 53.1873C117.72 53.7311 117.756 53.5342 117.771 53.8097C117.817 53.8296 117.827 54.4634 117.828 54.5148C117.838 54.8745 117.853 55.0115 117.882 55.2613C117.882 55.2613 117.882 55.2642 117.882 55.2656C118.738 62.8936 119.705 72.6313 116.254 79.7312C113.904 84.5629 108.246 80.3079 106.33 77.4088C103.308 72.8369 103.629 66.0653 103.912 60.8196C104.321 53.2473 106.521 41.5426 112.436 35.3948C112.763 35.0551 113.307 35.1493 113.526 35.5718C113.527 35.5761 113.53 35.5789 113.531 35.5832C114.698 37.8071 115.498 40.3265 116.094 42.9414C116.145 43.1655 115.93 43.3425 115.937 43.5724H115.936Z" fill="#74A6AC" stroke="#74A6AC" stroke-width="9" stroke-miterlimit="10"/>
</svg>
