<svg width="130" height="145" viewBox="0 0 130 145" fill="none" xmlns="http://www.w3.org/2000/svg">
<path d="M32.1035 5L32.748 5.00586C39.4056 5.124 45.9255 6.98162 51.668 10.4053C57.596 13.9396 62.481 19.015 65.8096 25.1064L68.9551 30.8633L73.6719 26.3037C77.9657 22.153 83.6301 19.7803 89.5479 19.627L90.1221 19.6191H106.866V36.5488C106.857 42.9877 104.316 49.1519 99.8115 53.6924L99.8105 53.6934C95.3071 58.2336 89.2093 60.7798 82.8574 60.7871H70.6123V107.336H124.5V111.918L5 111.036V107.336H66.1104V60.7871H53.8652C43.6684 60.7757 33.8838 56.6877 26.6611 49.4062C19.6629 42.3509 15.6239 32.8556 15.3682 22.8896L15.3555 21.9238V5H32.1035ZM90.1084 24.2393C84.9261 24.2445 79.9654 26.3223 76.3135 30.0039C72.663 33.6842 70.6174 38.6661 70.6123 43.8535V56.168H82.8682C88.0503 56.1627 93.0102 54.0847 96.6621 50.4033C100.313 46.723 102.359 41.741 102.364 36.5537V24.2393H90.1084ZM66.1104 43.8525C66.1002 34.7896 62.5251 26.0926 56.1562 19.6719C49.7859 13.2498 41.14 9.62935 32.1133 9.61914H19.8564V21.9346C19.8666 30.9976 23.4426 39.6953 29.8115 46.1162C36.1819 52.5381 44.828 56.1578 53.8545 56.168H66.1104V43.8525Z" stroke="#F4F6E1" stroke-width="10"/>
<path d="M124 135V139.575L7 138.654V135H124Z" stroke="#F4F6E1" stroke-width="10"/>
</svg>
