<svg width="227" height="104" viewBox="0 0 227 104" fill="none" xmlns="http://www.w3.org/2000/svg">
<path d="M218.145 1.37392C213.462 2.93648 209.785 5.74587 206.976 8.53004C204.852 10.628 203.139 12.7259 201.606 14.5615C199.308 17.335 197.415 19.4441 195.626 20.6871C194.727 21.3229 193.857 21.7787 192.836 22.1202C191.815 22.4543 190.621 22.6769 189.038 22.6769C187.43 22.6769 186.222 22.4431 185.189 22.1017C183.407 21.4946 181.982 20.5033 180.252 18.8113C178.969 17.5538 177.594 15.9121 176.025 14.0295C173.668 11.2235 170.872 7.79678 166.808 4.89767C164.779 3.46024 162.433 2.19594 159.807 1.33367C157.178 0.464619 154.29 -0.00288636 151.221 0.000993347C148.103 -0.00288636 145.171 0.478683 142.513 1.37344C137.832 2.93599 134.153 5.74538 131.343 8.52956C129.22 10.6275 127.506 12.7255 125.97 14.561C123.676 17.3345 121.782 19.4437 119.997 20.6866C119.097 21.3224 118.228 21.7783 117.207 22.1197C116.186 22.4538 114.995 22.6764 113.409 22.6764C111.801 22.6764 110.597 22.4427 109.562 22.1012C107.784 21.4941 106.359 20.5028 104.629 18.8142C103.346 17.5567 101.971 15.9151 100.405 14.0286C98.0452 11.2264 95.2521 7.79581 91.1851 4.8967C89.1603 3.45927 86.8102 2.19497 84.1842 1.3327C81.5585 0.463649 78.6701 -0.00385575 75.5996 2.39536e-05C72.4831 -0.00385575 69.5521 0.477714 66.8937 1.37247C62.2149 2.93502 58.5356 5.74441 55.7274 8.52859C53.6055 10.6265 51.8939 12.7284 50.3596 14.5601C48.0667 17.337 46.1712 19.4427 44.3856 20.6856C43.4862 21.3214 42.6182 21.7773 41.5992 22.1187C40.5783 22.4528 39.3869 22.6754 37.8047 22.6754C36.1963 22.6754 34.9903 22.4417 33.9597 22.1003C32.179 21.4931 30.7532 20.5018 29.023 18.8132C27.743 17.5557 26.3694 15.9141 24.8005 14.0276C22.442 11.2255 19.6476 7.79484 15.5842 4.89573C13.5571 3.4583 11.2088 2.194 8.58186 1.33173C5.95533 0.46462 3.06872 -0.00239981 0 0.00147989V18.144C1.60835 18.1473 2.81262 18.3772 3.84498 18.7186C5.62746 19.3292 7.05149 20.3176 8.78169 22.0057C10.0631 23.2666 11.437 24.9082 13.0042 26.7908C15.3626 29.5934 18.1571 33.0241 22.2223 35.9232C24.2471 37.3601 26.5941 38.6244 29.2233 39.4906C31.8507 40.3562 34.7373 40.8233 37.806 40.8194C40.9226 40.8233 43.8517 40.3451 46.5119 39.4435C51.1926 37.8844 54.8701 35.075 57.68 32.2908C59.8019 30.1924 61.5135 28.091 63.0483 26.2588C65.339 23.4819 67.2362 21.3767 69.0218 20.1299C69.9212 19.4975 70.7879 19.0377 71.8083 18.7002C72.8273 18.3661 74.0187 18.1469 75.601 18.1435C77.2111 18.1469 78.4154 18.3767 79.4495 18.7181C81.2284 19.3287 82.656 20.3171 84.3862 22.0052C85.6662 23.2661 87.038 24.9077 88.6069 26.7904C90.9671 29.593 93.7598 33.0236 97.8268 35.9227C99.8516 37.3596 102.199 38.6239 104.828 39.4901C107.453 40.3557 110.342 40.8228 113.411 40.8189C116.529 40.8228 119.46 40.3446 122.118 39.4469C126.799 37.8844 130.479 35.0784 133.288 32.2908C135.411 30.1924 137.125 28.0944 138.657 26.2588C140.955 23.4853 142.849 21.3801 144.634 20.1338C145.533 19.5014 146.403 19.0416 147.424 18.7002C148.445 18.3661 149.636 18.1469 151.221 18.1435C152.83 18.1469 154.034 18.3767 155.068 18.7181C156.85 19.3287 158.278 20.3171 160.008 22.0052C161.288 23.2661 162.663 24.9077 164.232 26.7938C166.589 29.5925 169.385 33.0236 173.452 35.9227C175.477 37.3596 177.827 38.6239 180.453 39.4901C183.082 40.3557 185.97 40.8228 189.039 40.8189C192.157 40.8228 195.085 40.3446 197.747 39.4469C202.428 37.8844 206.107 35.0784 208.916 32.2908C211.04 30.1924 212.754 28.0944 214.287 26.2622C216.584 23.4853 218.478 21.3796 220.267 20.1333C221.166 19.5009 222.036 19.0411 223.057 18.7036C224.078 18.3661 225.269 18.1469 226.854 18.1435V0.000993347C223.735 -0.0024014 220.804 0.479168 218.145 1.37392Z" fill="#F4F6E1"/>
<path d="M206.977 71.5276C204.854 73.6217 203.14 75.7235 201.607 77.5596C199.309 80.3331 197.416 82.4417 195.627 83.6847C194.728 84.317 193.858 84.7768 192.837 85.1143C191.817 85.4519 190.622 85.6745 189.04 85.6745C187.431 85.6745 186.224 85.4407 185.19 85.0998C183.408 84.4926 181.983 83.5008 180.253 81.8088C178.97 80.5513 177.595 78.9097 176.026 77.0271C173.669 74.2211 170.873 70.7943 166.809 67.8952C164.781 66.4583 162.434 65.1935 159.808 64.3317C157.179 63.4622 154.291 62.9952 151.222 62.9985C148.104 62.9952 145.173 63.4762 142.514 64.371C137.834 65.9335 134.154 68.7395 131.345 71.5271C129.221 73.6251 127.508 75.723 125.972 77.5591C123.677 80.3326 121.784 82.4412 119.998 83.6842C119.099 84.3166 118.229 84.7763 117.208 85.1138C116.187 85.4514 114.996 85.674 113.411 85.674C111.802 85.674 110.598 85.4402 109.564 85.0993C107.785 84.4921 106.36 83.5004 104.631 81.8122C103.347 80.5547 101.972 78.9131 100.406 77.0266C98.0466 74.2245 95.2534 70.7938 91.1865 67.8947C89.1616 66.4578 86.8116 65.193 84.1855 64.3312C81.5598 63.4617 78.6715 62.9947 75.601 62.9981C72.4844 62.9947 69.5535 63.4758 66.895 64.3705C62.2162 65.9331 58.5369 68.7429 55.7287 71.5266C53.6069 73.6246 51.8953 75.7264 50.3609 77.5586C48.068 80.3355 46.1726 82.4407 44.387 83.6837C43.4875 84.3161 42.6196 84.7758 41.6005 85.1133C40.5797 85.4509 39.3882 85.6735 37.806 85.6735C36.1977 85.6735 34.9916 85.4397 33.961 85.0988C32.1803 84.4916 30.7545 83.4999 29.0243 81.8117C27.7443 80.5542 26.3708 78.9126 24.8018 77.0261C22.4434 74.224 19.6489 70.7934 15.5855 67.8942C13.5585 66.4573 11.2102 65.1925 8.58319 64.3307C5.95533 63.4612 3.06916 62.9942 0 62.9976V81.14C1.60835 81.1439 2.81262 81.3738 3.84498 81.7147C5.62746 82.3219 7.05149 83.3137 8.78169 85.0018C10.0631 86.2593 11.437 87.9048 13.0042 89.7874C15.3626 92.5895 18.1571 96.0202 22.2223 98.9193C24.2471 100.356 26.5941 101.621 29.2233 102.483C31.8507 103.352 34.7373 103.819 37.806 103.816C40.9226 103.819 43.8517 103.338 46.5119 102.44C51.1926 100.88 54.8701 98.0711 57.68 95.2869C59.8019 93.189 61.5135 91.0871 63.0483 89.2549C65.339 86.478 67.2362 84.3728 69.0218 83.126C69.9212 82.4941 70.7879 82.0343 71.8083 81.6963C72.8273 81.3617 74.0188 81.143 75.601 81.1396C77.2111 81.1434 78.4154 81.3733 79.4495 81.7142C81.2284 82.3214 82.656 83.3132 84.3862 85.0013C85.6662 86.2588 87.038 87.9043 88.6069 89.7869C90.9671 92.5891 93.7598 96.0197 97.8268 98.9188C99.8516 100.356 102.199 101.621 104.828 102.482C107.453 103.352 110.342 103.819 113.411 103.815C116.529 103.819 119.46 103.338 122.118 102.443C126.799 100.88 130.479 98.0745 133.288 95.2869C135.411 93.189 137.125 91.091 138.657 89.2549C140.955 86.4814 142.849 84.3762 144.634 83.1299C145.533 82.4975 146.403 82.0377 147.424 81.6968C148.445 81.3622 149.636 81.1434 151.221 81.14C152.83 81.1439 154.034 81.3738 155.068 81.7147C156.85 82.3219 158.278 83.3137 160.008 85.0018C161.288 86.2593 162.663 87.9048 164.232 89.7874C166.589 92.5895 169.385 96.0202 173.452 98.9193C175.477 100.356 177.827 101.621 180.453 102.483C183.082 103.352 185.97 103.819 189.039 103.816C192.157 103.819 195.085 103.338 197.747 102.444C202.428 100.881 206.107 98.075 208.917 95.2874C211.04 93.1894 212.754 91.0915 214.287 89.2588C216.584 86.4819 218.478 84.3767 220.267 83.1299C221.166 82.4975 222.036 82.0377 223.057 81.7002C224.078 81.3626 225.269 81.1434 226.854 81.14V62.9976C223.736 62.9942 220.805 63.4753 218.146 64.37C213.463 65.934 209.787 68.74 206.977 71.5276Z" fill="#F4F6E1"/>
</svg>
