<svg width="234" height="179" viewBox="0 0 234 179" fill="none" xmlns="http://www.w3.org/2000/svg">
<path d="M16.5234 110.921C37.4977 104.488 39.5721 85.6928 42.5684 62.7355C46.8324 29.3087 87.7437 -16.2274 142.599 28.9303C104.339 39.0214 97.1936 83.9269 120.242 93.3873C143.291 102.848 163.919 70.5562 196.187 95.6578C203.969 103.472 213.587 108.757 223.961 110.921" stroke="#F4F6E1" stroke-width="19" stroke-linecap="round" stroke-linejoin="round"/>
<path d="M10 169.447C39.1507 169.447 61.0137 137.613 61.0137 137.613C61.0137 137.613 82.8767 169.447 112.028 169.447C141.178 169.447 170.329 137.613 170.329 137.613C170.329 137.613 199.479 169.447 221.342 169.447" stroke="#F4F6E1" stroke-width="19" stroke-linecap="round" stroke-linejoin="round"/>
</svg>
