<svg width="130" height="154" viewBox="0 0 130 154" fill="none" xmlns="http://www.w3.org/2000/svg">
<path d="M75.6121 102.336V65.7875H82.8628C90.5522 65.7788 97.9242 62.6955 103.361 57.214C108.799 51.7325 111.857 44.3006 111.866 36.5486V14.6194H90.1136C82.6895 14.6314 75.5559 17.529 70.1972 22.7091C66.4419 15.8367 60.9275 10.105 54.2285 6.11096C47.5294 2.11694 39.8906 0.00669464 32.1077 0H10.3555V21.9292C10.3681 33.5572 14.9557 44.7053 23.1116 52.9276C31.2675 61.1498 42.3257 65.7747 53.8599 65.7875H61.1106V102.336H0V116L129.5 116.956V102.336H75.6121ZM90.1136 29.2389H97.3643V36.5486C97.3604 40.4247 95.8314 44.141 93.1127 46.8818C90.3939 49.6227 86.7077 51.1642 82.8628 51.168H75.6121V43.8583C75.6159 39.9822 77.145 36.2659 79.8637 33.5251C82.5824 30.7843 86.2687 29.2428 90.1136 29.2389ZM53.8599 51.168C46.1705 51.1593 38.7985 48.076 33.3612 42.5946C27.924 37.1131 24.8656 29.6811 24.8569 21.9292V14.6194H32.1077C39.7971 14.6281 47.1691 17.7115 52.6063 23.1929C58.0435 28.6744 61.102 36.1064 61.1106 43.8583V51.168H53.8599Z" fill="#F4F6E1"/>
<path d="M128 138.885H1V152.5L128 153.5V138.885Z" fill="#F4F6E1"/>
</svg>
