<svg width="155" height="139" viewBox="0 0 155 139" fill="none" xmlns="http://www.w3.org/2000/svg">
<mask id="path-1-inside-1_209_267" fill="white">
<path d="M152.819 126.756C152.701 126.604 152.558 126.521 152.423 126.414C152.747 125.71 152.801 124.869 152.369 123.993C138.586 96.0261 125.973 67.6831 111.713 39.9374C108.296 33.2894 104.112 27.0159 101.01 20.2348C98.8815 15.5841 96.9084 10.4332 93.7128 6.37967C90.5244 2.33425 85.0646 -2.24297 79.5636 1.22868C63.8344 11.1546 57.1706 33.9213 48.0599 49.4138C40.4242 62.399 34.3975 76.7553 25.4542 88.8891C19.8958 96.4296 13.9646 103.691 8.16441 111.046C5.47172 114.461 1.62998 118.005 0.40493 122.255C0.29981 122.619 0.322451 122.978 0.396844 123.325C-2.21256 131.792 8.41023 135.723 21.5777 137.462C21.8729 137.621 22.1761 137.644 22.4713 137.579C38.3145 139.535 57.4447 138.439 61.7482 138.235C84.3175 137.161 106.795 138.327 129.356 138.95C135.196 139.109 162.879 139.63 152.819 126.756ZM87.9813 7.86533C91.0023 10.5292 93.0319 15.2484 94.7713 19.4109C93.2648 17.8542 91.7535 16.3024 90.2479 14.7457C88.0872 12.512 85.9177 10.2887 83.6973 8.11388C83.2008 7.62727 82.5458 6.95747 81.8544 6.4297C83.7959 5.76556 85.8773 6.01007 87.9813 7.86533ZM72.2206 16.7962C72.9297 15.5656 74.0189 13.7402 75.3717 11.943C79.0566 18.6184 83.8937 24.6054 88.7681 30.4488C94.7179 37.5826 100.795 45.5265 107.818 51.6072C108.964 52.599 110.883 51.3263 110.002 49.9254C105.924 43.4413 99.906 38.1136 94.6702 32.5567C88.0743 25.5561 82.1625 18.2173 76.6437 10.371C77.8817 8.94992 79.2806 7.68295 80.7814 6.90179C80.0083 8.15504 88.6525 16.6292 89.9737 18.1253C92.1546 20.5996 94.3362 23.0738 96.5324 25.5351C97.2772 26.3695 98.0389 27.3912 98.8709 28.3353C103.398 37.3962 108.696 46.2407 113.348 55.1991C116.91 62.0576 120.278 68.9961 123.593 75.958C108.549 54.9642 90.2608 36.1195 70.9058 19.1381C71.3432 18.3561 71.775 17.5701 72.2206 16.7962ZM70.1885 20.4123C90.7775 39.9277 108.164 62.1335 125.591 84.4232C126.159 85.1487 127.046 85.0414 127.669 84.562C132.741 95.4225 137.71 106.33 142.876 117.161C118.493 85.4982 96.2535 52.1939 68.6707 23.1141C69.1761 22.2135 69.6847 21.3154 70.1885 20.4123ZM67.6656 24.9016C74.3634 32.9569 80.8655 41.164 87.2325 49.4751C86.8048 49.5542 86.3988 49.7406 86.0851 50.0715C85.9371 50.228 85.836 50.4266 85.705 50.5984C85.5344 50.5161 85.3945 50.4096 85.1835 50.3612C84.4056 50.1828 83.6196 50.0513 82.8329 49.9383C82.9962 49.4751 82.9355 48.9457 82.4407 48.4971C76.1359 42.786 70.8605 36.0469 64.6543 30.2584C65.6465 28.4636 66.6662 26.6907 67.6656 24.9016ZM83.6601 63.9799C83.4805 71.6817 84.066 79.3981 84.4355 87.0879C80.2145 86.979 75.9289 87.0871 71.7063 87.3647C71.3408 83.6566 71.2632 74.5942 71.2858 73.006C71.3699 66.8431 72.7785 60.6704 73.0963 54.5656C76.6963 54.1532 80.3342 54.2904 83.8768 55.1022C83.9091 55.1095 83.9342 55.0982 83.9665 55.1046C83.4886 58.1123 83.7175 61.5016 83.6601 63.9799ZM63.6314 32.1193C68.9869 37.8206 73.4383 44.3766 79.2127 49.6527C77.5914 49.6204 75.9677 49.6978 74.3594 49.9214C72.4114 47.7675 69.73 45.8986 67.7303 44.0828C65.3797 41.9492 62.8964 39.9793 60.3339 38.1128C61.428 36.1098 62.5325 34.1166 63.6314 32.1193ZM59.3644 39.8881C61.7005 41.7216 63.9646 43.6406 66.1422 45.6686C67.4538 46.8895 68.7079 48.4156 70.0195 49.8617C69.3742 49.9771 68.7767 50.3459 68.4096 51.0576C67.9786 51.892 67.6414 52.8136 67.3301 53.7554C65.9069 52.5796 64.4012 51.4829 63.0306 50.3491C60.8288 48.5293 58.7442 46.6127 56.8334 44.5186C57.6711 42.9716 58.5226 41.4335 59.3644 39.8881ZM55.9245 46.1883C57.3841 47.9822 58.9746 49.6672 60.6436 51.2941C62.5414 53.1429 64.4587 55.1958 66.4939 57.0132C65.9748 59.6795 65.7282 62.5434 65.6643 65.4268C64.0066 63.465 62.1185 61.6396 60.4334 59.8747C57.925 57.2472 55.2728 54.7568 52.6132 52.2786C53.7113 50.2458 54.824 48.2203 55.9245 46.1883ZM51.6995 53.9644C53.7283 56.1513 55.7693 58.3269 57.735 60.572C60.4795 63.7055 62.822 67.3555 65.6708 70.3954C65.733 73.0302 65.8479 75.5569 65.9069 77.7624C65.9215 78.278 65.9336 78.8131 65.9481 79.3554C60.8094 72.3177 54.9518 65.4897 48.8346 59.2485C49.7863 57.4885 50.7478 55.7268 51.6995 53.9644ZM47.8764 61.0215C53.2407 68.0535 59.0636 74.7426 64.3002 81.8877C64.7764 82.5373 65.5188 82.6043 66.1147 82.3678C66.3306 84.6831 66.8271 86.8991 68.1201 88.396C67.622 89.1151 67.6244 90.1052 68.1217 90.8162C60.1665 83.0828 52.6658 74.8637 44.367 67.5072C45.5387 65.3509 46.7071 63.1834 47.8764 61.0215ZM42.9964 69.9701C51.8539 78.9333 60.1253 88.4751 69.3217 97.0905C68.4427 97.3471 67.8613 98.1355 67.7198 98.9546C67.0907 99.1975 66.5473 99.6841 66.2886 100.514C65.8034 102.068 65.5802 103.759 65.5325 105.489C62.7832 100.703 58.5946 96.5119 55.0698 92.4003C50.2092 86.7304 45.0001 81.2873 39.5015 76.2227C40.6789 74.1681 41.8368 72.0707 42.9964 69.9701ZM5.92212 121.875C6.48492 120.775 7.1682 119.675 7.91131 118.576C10.0315 123.298 13.1212 127.491 16.4228 131.513C9.24715 129.846 4.59922 126.907 5.92212 121.875ZM21.429 132.428C17.0422 127.332 12.6781 122.391 9.4299 116.469C10.1738 115.489 10.9768 114.515 11.8 113.545C11.732 113.77 11.749 114.036 11.9026 114.321C15.6449 121.282 21.0141 127.627 26.9259 133.023C25.0338 132.869 23.1861 132.677 21.429 132.428ZM42.1231 133.479C39.5816 129.901 34.7299 127.156 31.5197 124.287C26.4052 119.716 21.7597 114.754 17.9301 109.056C17.1498 107.894 15.425 108.897 16.0549 110.148C18.9853 115.969 23.6324 120.864 28.1849 125.453C30.5315 127.819 33.2582 131.019 36.2177 133.452C35.0622 133.432 33.9051 133.404 32.752 133.361C25.7639 127.028 19.3451 120.884 13.6396 113.308C13.2668 112.813 12.6951 112.769 12.2795 112.986C14.7983 110.061 17.5533 107.194 20.0551 104.451C24.8001 110.783 29.7359 116.988 34.6709 123.167C36.5824 125.561 39.5193 130.154 42.8298 133.469C42.5921 133.47 42.3624 133.477 42.1231 133.479ZM59.7509 132.801C48.6065 121.585 38.2749 109.629 27.2195 98.3421C26.2734 97.377 24.9181 98.7965 25.7591 99.7995C35.2118 111.068 44.768 122.429 54.9566 133.071C53.1938 133.161 51.2814 133.248 49.2316 133.319C45.364 129.071 40.712 125.25 36.821 121.022C31.4865 115.224 26.5362 109.01 21.0255 103.372C22.2481 102.006 23.3987 100.669 24.3941 99.3799C26.1618 97.0897 27.8308 94.7761 29.4399 92.4423C36.9414 100.566 42.9923 110.006 49.6974 118.765C52.2793 122.139 56.9183 129.568 61.9447 132.666C61.3026 132.705 60.5684 132.751 59.7509 132.801ZM67.7756 132.399C67.719 132.212 67.6584 132.023 67.508 131.855C65.4193 129.519 62.4784 127.894 60.1924 125.685C56.2892 121.913 52.8979 117.578 49.4944 113.367C43.3861 105.807 37.4784 97.8297 30.2178 91.3076C31.7574 89.0352 33.2226 86.7312 34.6587 84.4103C41.9322 93.7665 49.3893 102.996 56.907 112.157C62.1363 118.527 67.829 126.466 74.4475 132.191C72.223 132.252 69.9985 132.304 67.7756 132.399ZM79.9 132.077C74.441 125.099 67.2346 119.007 61.3471 112.443C52.6003 102.693 44.1866 92.6835 35.6808 82.7286C36.7013 81.046 37.6878 79.3328 38.6792 77.6236C43.0756 82.4808 47.5303 87.2743 51.7472 92.2954C56.3507 97.7764 59.7598 104.269 64.5436 109.54C64.9349 109.972 65.3813 110.052 65.7807 109.941C66.0419 111.829 66.4721 113.669 67.0034 115.336C67.3171 116.32 68.0837 116.651 68.8131 116.553C68.9449 117.176 69.3734 117.728 70.2556 117.936C72.5586 118.476 75.0677 118.995 77.5995 119.304C77.4661 119.485 77.365 119.708 77.2582 119.917C77.0254 120.374 76.9494 120.973 77.2582 121.425C79.4617 124.647 82.7673 127.291 85.7358 129.779C86.4854 130.407 87.349 131.236 88.2764 132.059C85.4843 132.054 82.6913 132.037 79.9 132.077ZM84.6078 114.517C80.2801 113.96 75.7146 114.53 71.3675 113.908C70.9979 113.856 70.6664 113.903 70.3599 113.998C69.8214 109.967 69.9953 105.749 71.1144 101.841C71.1532 101.706 71.1265 101.596 71.1451 101.468C75.5804 102.283 80.2946 102.754 84.7937 102.492C83.9827 106.334 84.2851 110.554 84.6078 114.517ZM94.3451 132.073C92.1384 129.831 89.2411 128.017 86.8452 126.016C85.16 124.61 83.4628 123.225 81.8415 121.745C81.0992 121.068 80.2226 119.973 79.3129 119.47C81.6692 119.655 84.0126 119.622 86.1943 119.178C86.5824 119.099 86.8784 118.903 87.1282 118.665C87.4185 118.588 87.6821 118.432 87.9061 118.221C89.8055 120.524 91.7681 122.777 93.8219 124.928C96.2672 127.489 99.2364 130.702 102.634 132.231C99.872 132.169 97.109 132.105 94.3451 132.073ZM105.939 132.293C105.812 132.289 105.684 132.289 105.557 132.286C105.791 131.872 105.787 131.32 105.395 130.905C102.58 127.925 98.7254 125.881 95.6696 123.083C93.1362 120.766 90.8737 118.198 88.574 115.663C88.7826 112.701 88.9953 109.742 89.3285 106.796C92.9397 111.419 97.3637 115.686 101.195 119.88C104.515 123.515 109.365 129.974 114.563 132.733C110.034 132.531 106.672 132.314 105.939 132.293ZM119.478 132.925C119.521 132.557 119.427 132.172 119.161 131.912C113.773 126.625 107.561 122.084 102.136 116.728C98.1076 112.751 94.2262 107.672 89.7012 103.962C89.7789 103.442 89.8419 102.921 89.9301 102.402C90.1387 101.181 89.5759 100.249 88.7697 99.7382C88.6104 98.8231 87.9231 97.9903 86.6406 97.8515C82.3315 97.3842 77.9941 97.6546 73.6688 97.3665C73.8467 96.8048 73.7683 96.1746 73.1861 95.6468C71.6432 94.2475 70.1618 92.7812 68.6643 91.3335C68.9586 91.5231 69.316 91.6587 69.7551 91.6926C74.9763 92.092 80.3512 92.2809 85.5846 92.0888L85.5894 92.0872C91.5279 99.7463 98.3914 106.477 105.517 113.071C112.537 119.568 119.203 126.528 126.154 133.071C123.88 133.047 121.618 132.994 119.478 132.925ZM130.217 133.082C125.103 125.234 116.666 119.028 109.728 112.957C101.877 106.084 94.0378 99.2661 87.1517 91.4319C87.7767 90.8549 88.0638 90.0027 87.9336 89.1723C88.4269 88.8278 88.7948 88.2822 88.8247 87.4857C88.9007 85.5127 88.9177 83.5364 88.9516 81.5609C94.561 91.6038 101.96 100.556 109.608 109.119C116.625 116.976 125.275 126.895 134.837 132.984C133.34 133.039 131.793 133.072 130.217 133.082ZM141.187 132.549C122.457 115.55 102.705 100.87 89.0082 78.9809C89.0463 75.7699 89.0697 72.5581 89.1069 69.3471C98.9599 82.2799 110.886 93.5325 121.621 105.722C127.911 112.865 134.417 126.336 142.975 132.31C142.408 132.397 141.813 132.478 141.187 132.549ZM147.361 131.093C139.424 121.946 132.352 112.105 124.325 103.022C113.225 90.4635 100.493 79.4393 89.3697 66.8592C89.3115 66.793 89.2427 66.7559 89.1748 66.7156C89.4126 62.4974 90.4371 57.5748 90.1767 53.3624C109.292 78.5177 127.539 104.344 147.75 128.655C147.994 128.946 148.265 129.075 148.539 129.142C148.546 129.174 148.539 129.204 148.549 129.237C148.767 129.988 148.3 130.595 147.361 131.093Z"/>
</mask>
<path d="M152.819 126.756C152.701 126.604 152.558 126.521 152.423 126.414C152.747 125.71 152.801 124.869 152.369 123.993C138.586 96.0261 125.973 67.6831 111.713 39.9374C108.296 33.2894 104.112 27.0159 101.01 20.2348C98.8815 15.5841 96.9084 10.4332 93.7128 6.37967C90.5244 2.33425 85.0646 -2.24297 79.5636 1.22868C63.8344 11.1546 57.1706 33.9213 48.0599 49.4138C40.4242 62.399 34.3975 76.7553 25.4542 88.8891C19.8958 96.4296 13.9646 103.691 8.16441 111.046C5.47172 114.461 1.62998 118.005 0.40493 122.255C0.29981 122.619 0.322451 122.978 0.396844 123.325C-2.21256 131.792 8.41023 135.723 21.5777 137.462C21.8729 137.621 22.1761 137.644 22.4713 137.579C38.3145 139.535 57.4447 138.439 61.7482 138.235C84.3175 137.161 106.795 138.327 129.356 138.95C135.196 139.109 162.879 139.63 152.819 126.756ZM87.9813 7.86533C91.0023 10.5292 93.0319 15.2484 94.7713 19.4109C93.2648 17.8542 91.7535 16.3024 90.2479 14.7457C88.0872 12.512 85.9177 10.2887 83.6973 8.11388C83.2008 7.62727 82.5458 6.95747 81.8544 6.4297C83.7959 5.76556 85.8773 6.01007 87.9813 7.86533ZM72.2206 16.7962C72.9297 15.5656 74.0189 13.7402 75.3717 11.943C79.0566 18.6184 83.8937 24.6054 88.7681 30.4488C94.7179 37.5826 100.795 45.5265 107.818 51.6072C108.964 52.599 110.883 51.3263 110.002 49.9254C105.924 43.4413 99.906 38.1136 94.6702 32.5567C88.0743 25.5561 82.1625 18.2173 76.6437 10.371C77.8817 8.94992 79.2806 7.68295 80.7814 6.90179C80.0083 8.15504 88.6525 16.6292 89.9737 18.1253C92.1546 20.5996 94.3362 23.0738 96.5324 25.5351C97.2772 26.3695 98.0389 27.3912 98.8709 28.3353C103.398 37.3962 108.696 46.2407 113.348 55.1991C116.91 62.0576 120.278 68.9961 123.593 75.958C108.549 54.9642 90.2608 36.1195 70.9058 19.1381C71.3432 18.3561 71.775 17.5701 72.2206 16.7962ZM70.1885 20.4123C90.7775 39.9277 108.164 62.1335 125.591 84.4232C126.159 85.1487 127.046 85.0414 127.669 84.562C132.741 95.4225 137.71 106.33 142.876 117.161C118.493 85.4982 96.2535 52.1939 68.6707 23.1141C69.1761 22.2135 69.6847 21.3154 70.1885 20.4123ZM67.6656 24.9016C74.3634 32.9569 80.8655 41.164 87.2325 49.4751C86.8048 49.5542 86.3988 49.7406 86.0851 50.0715C85.9371 50.228 85.836 50.4266 85.705 50.5984C85.5344 50.5161 85.3945 50.4096 85.1835 50.3612C84.4056 50.1828 83.6196 50.0513 82.8329 49.9383C82.9962 49.4751 82.9355 48.9457 82.4407 48.4971C76.1359 42.786 70.8605 36.0469 64.6543 30.2584C65.6465 28.4636 66.6662 26.6907 67.6656 24.9016ZM83.6601 63.9799C83.4805 71.6817 84.066 79.3981 84.4355 87.0879C80.2145 86.979 75.9289 87.0871 71.7063 87.3647C71.3408 83.6566 71.2632 74.5942 71.2858 73.006C71.3699 66.8431 72.7785 60.6704 73.0963 54.5656C76.6963 54.1532 80.3342 54.2904 83.8768 55.1022C83.9091 55.1095 83.9342 55.0982 83.9665 55.1046C83.4886 58.1123 83.7175 61.5016 83.6601 63.9799ZM63.6314 32.1193C68.9869 37.8206 73.4383 44.3766 79.2127 49.6527C77.5914 49.6204 75.9677 49.6978 74.3594 49.9214C72.4114 47.7675 69.73 45.8986 67.7303 44.0828C65.3797 41.9492 62.8964 39.9793 60.3339 38.1128C61.428 36.1098 62.5325 34.1166 63.6314 32.1193ZM59.3644 39.8881C61.7005 41.7216 63.9646 43.6406 66.1422 45.6686C67.4538 46.8895 68.7079 48.4156 70.0195 49.8617C69.3742 49.9771 68.7767 50.3459 68.4096 51.0576C67.9786 51.892 67.6414 52.8136 67.3301 53.7554C65.9069 52.5796 64.4012 51.4829 63.0306 50.3491C60.8288 48.5293 58.7442 46.6127 56.8334 44.5186C57.6711 42.9716 58.5226 41.4335 59.3644 39.8881ZM55.9245 46.1883C57.3841 47.9822 58.9746 49.6672 60.6436 51.2941C62.5414 53.1429 64.4587 55.1958 66.4939 57.0132C65.9748 59.6795 65.7282 62.5434 65.6643 65.4268C64.0066 63.465 62.1185 61.6396 60.4334 59.8747C57.925 57.2472 55.2728 54.7568 52.6132 52.2786C53.7113 50.2458 54.824 48.2203 55.9245 46.1883ZM51.6995 53.9644C53.7283 56.1513 55.7693 58.3269 57.735 60.572C60.4795 63.7055 62.822 67.3555 65.6708 70.3954C65.733 73.0302 65.8479 75.5569 65.9069 77.7624C65.9215 78.278 65.9336 78.8131 65.9481 79.3554C60.8094 72.3177 54.9518 65.4897 48.8346 59.2485C49.7863 57.4885 50.7478 55.7268 51.6995 53.9644ZM47.8764 61.0215C53.2407 68.0535 59.0636 74.7426 64.3002 81.8877C64.7764 82.5373 65.5188 82.6043 66.1147 82.3678C66.3306 84.6831 66.8271 86.8991 68.1201 88.396C67.622 89.1151 67.6244 90.1052 68.1217 90.8162C60.1665 83.0828 52.6658 74.8637 44.367 67.5072C45.5387 65.3509 46.7071 63.1834 47.8764 61.0215ZM42.9964 69.9701C51.8539 78.9333 60.1253 88.4751 69.3217 97.0905C68.4427 97.3471 67.8613 98.1355 67.7198 98.9546C67.0907 99.1975 66.5473 99.6841 66.2886 100.514C65.8034 102.068 65.5802 103.759 65.5325 105.489C62.7832 100.703 58.5946 96.5119 55.0698 92.4003C50.2092 86.7304 45.0001 81.2873 39.5015 76.2227C40.6789 74.1681 41.8368 72.0707 42.9964 69.9701ZM5.92212 121.875C6.48492 120.775 7.1682 119.675 7.91131 118.576C10.0315 123.298 13.1212 127.491 16.4228 131.513C9.24715 129.846 4.59922 126.907 5.92212 121.875ZM21.429 132.428C17.0422 127.332 12.6781 122.391 9.4299 116.469C10.1738 115.489 10.9768 114.515 11.8 113.545C11.732 113.77 11.749 114.036 11.9026 114.321C15.6449 121.282 21.0141 127.627 26.9259 133.023C25.0338 132.869 23.1861 132.677 21.429 132.428ZM42.1231 133.479C39.5816 129.901 34.7299 127.156 31.5197 124.287C26.4052 119.716 21.7597 114.754 17.9301 109.056C17.1498 107.894 15.425 108.897 16.0549 110.148C18.9853 115.969 23.6324 120.864 28.1849 125.453C30.5315 127.819 33.2582 131.019 36.2177 133.452C35.0622 133.432 33.9051 133.404 32.752 133.361C25.7639 127.028 19.3451 120.884 13.6396 113.308C13.2668 112.813 12.6951 112.769 12.2795 112.986C14.7983 110.061 17.5533 107.194 20.0551 104.451C24.8001 110.783 29.7359 116.988 34.6709 123.167C36.5824 125.561 39.5193 130.154 42.8298 133.469C42.5921 133.47 42.3624 133.477 42.1231 133.479ZM59.7509 132.801C48.6065 121.585 38.2749 109.629 27.2195 98.3421C26.2734 97.377 24.9181 98.7965 25.7591 99.7995C35.2118 111.068 44.768 122.429 54.9566 133.071C53.1938 133.161 51.2814 133.248 49.2316 133.319C45.364 129.071 40.712 125.25 36.821 121.022C31.4865 115.224 26.5362 109.01 21.0255 103.372C22.2481 102.006 23.3987 100.669 24.3941 99.3799C26.1618 97.0897 27.8308 94.7761 29.4399 92.4423C36.9414 100.566 42.9923 110.006 49.6974 118.765C52.2793 122.139 56.9183 129.568 61.9447 132.666C61.3026 132.705 60.5684 132.751 59.7509 132.801ZM67.7756 132.399C67.719 132.212 67.6584 132.023 67.508 131.855C65.4193 129.519 62.4784 127.894 60.1924 125.685C56.2892 121.913 52.8979 117.578 49.4944 113.367C43.3861 105.807 37.4784 97.8297 30.2178 91.3076C31.7574 89.0352 33.2226 86.7312 34.6587 84.4103C41.9322 93.7665 49.3893 102.996 56.907 112.157C62.1363 118.527 67.829 126.466 74.4475 132.191C72.223 132.252 69.9985 132.304 67.7756 132.399ZM79.9 132.077C74.441 125.099 67.2346 119.007 61.3471 112.443C52.6003 102.693 44.1866 92.6835 35.6808 82.7286C36.7013 81.046 37.6878 79.3328 38.6792 77.6236C43.0756 82.4808 47.5303 87.2743 51.7472 92.2954C56.3507 97.7764 59.7598 104.269 64.5436 109.54C64.9349 109.972 65.3813 110.052 65.7807 109.941C66.0419 111.829 66.4721 113.669 67.0034 115.336C67.3171 116.32 68.0837 116.651 68.8131 116.553C68.9449 117.176 69.3734 117.728 70.2556 117.936C72.5586 118.476 75.0677 118.995 77.5995 119.304C77.4661 119.485 77.365 119.708 77.2582 119.917C77.0254 120.374 76.9494 120.973 77.2582 121.425C79.4617 124.647 82.7673 127.291 85.7358 129.779C86.4854 130.407 87.349 131.236 88.2764 132.059C85.4843 132.054 82.6913 132.037 79.9 132.077ZM84.6078 114.517C80.2801 113.96 75.7146 114.53 71.3675 113.908C70.9979 113.856 70.6664 113.903 70.3599 113.998C69.8214 109.967 69.9953 105.749 71.1144 101.841C71.1532 101.706 71.1265 101.596 71.1451 101.468C75.5804 102.283 80.2946 102.754 84.7937 102.492C83.9827 106.334 84.2851 110.554 84.6078 114.517ZM94.3451 132.073C92.1384 129.831 89.2411 128.017 86.8452 126.016C85.16 124.61 83.4628 123.225 81.8415 121.745C81.0992 121.068 80.2226 119.973 79.3129 119.47C81.6692 119.655 84.0126 119.622 86.1943 119.178C86.5824 119.099 86.8784 118.903 87.1282 118.665C87.4185 118.588 87.6821 118.432 87.9061 118.221C89.8055 120.524 91.7681 122.777 93.8219 124.928C96.2672 127.489 99.2364 130.702 102.634 132.231C99.872 132.169 97.109 132.105 94.3451 132.073ZM105.939 132.293C105.812 132.289 105.684 132.289 105.557 132.286C105.791 131.872 105.787 131.32 105.395 130.905C102.58 127.925 98.7254 125.881 95.6696 123.083C93.1362 120.766 90.8737 118.198 88.574 115.663C88.7826 112.701 88.9953 109.742 89.3285 106.796C92.9397 111.419 97.3637 115.686 101.195 119.88C104.515 123.515 109.365 129.974 114.563 132.733C110.034 132.531 106.672 132.314 105.939 132.293ZM119.478 132.925C119.521 132.557 119.427 132.172 119.161 131.912C113.773 126.625 107.561 122.084 102.136 116.728C98.1076 112.751 94.2262 107.672 89.7012 103.962C89.7789 103.442 89.8419 102.921 89.9301 102.402C90.1387 101.181 89.5759 100.249 88.7697 99.7382C88.6104 98.8231 87.9231 97.9903 86.6406 97.8515C82.3315 97.3842 77.9941 97.6546 73.6688 97.3665C73.8467 96.8048 73.7683 96.1746 73.1861 95.6468C71.6432 94.2475 70.1618 92.7812 68.6643 91.3335C68.9586 91.5231 69.316 91.6587 69.7551 91.6926C74.9763 92.092 80.3512 92.2809 85.5846 92.0888L85.5894 92.0872C91.5279 99.7463 98.3914 106.477 105.517 113.071C112.537 119.568 119.203 126.528 126.154 133.071C123.88 133.047 121.618 132.994 119.478 132.925ZM130.217 133.082C125.103 125.234 116.666 119.028 109.728 112.957C101.877 106.084 94.0378 99.2661 87.1517 91.4319C87.7767 90.8549 88.0638 90.0027 87.9336 89.1723C88.4269 88.8278 88.7948 88.2822 88.8247 87.4857C88.9007 85.5127 88.9177 83.5364 88.9516 81.5609C94.561 91.6038 101.96 100.556 109.608 109.119C116.625 116.976 125.275 126.895 134.837 132.984C133.34 133.039 131.793 133.072 130.217 133.082ZM141.187 132.549C122.457 115.55 102.705 100.87 89.0082 78.9809C89.0463 75.7699 89.0697 72.5581 89.1069 69.3471C98.9599 82.2799 110.886 93.5325 121.621 105.722C127.911 112.865 134.417 126.336 142.975 132.31C142.408 132.397 141.813 132.478 141.187 132.549ZM147.361 131.093C139.424 121.946 132.352 112.105 124.325 103.022C113.225 90.4635 100.493 79.4393 89.3697 66.8592C89.3115 66.793 89.2427 66.7559 89.1748 66.7156C89.4126 62.4974 90.4371 57.5748 90.1767 53.3624C109.292 78.5177 127.539 104.344 147.75 128.655C147.994 128.946 148.265 129.075 148.539 129.142C148.546 129.174 148.539 129.204 148.549 129.237C148.767 129.988 148.3 130.595 147.361 131.093Z" fill="#F4F6E1" stroke="#74A6AC" stroke-width="8.34694" mask="url(#path-1-inside-1_209_267)"/>
</svg>
