<svg width="137" height="103" viewBox="0 0 137 103" fill="none" xmlns="http://www.w3.org/2000/svg">
<g clip-path="url(#clip0_251_13)">
<path d="M38.3623 2.086C43.0261 0.837919 48.0913 -0.171379 52.3828 1.05572C54.4726 1.65338 56.1882 3.05163 57.8105 4.78522C58.6206 5.65082 59.397 6.58776 60.1826 7.53912C60.9646 8.48611 61.7563 9.4479 62.584 10.3409L62.585 10.3419C64.5153 12.4229 66.9751 15.0448 68.0625 17.4757L68.5186 18.4962L68.9756 17.4757C70.0695 15.0301 72.3403 12.2026 74.2412 10.1534C75.887 8.37354 77.4518 6.55361 79.168 5.00592C80.8762 3.46547 82.6962 2.23274 84.8145 1.62701C89.1158 0.397082 93.9425 1.16067 98.5762 2.41022C103.459 3.72395 108.642 5.84989 112.131 10.0108C112.127 10.0204 112.123 10.0312 112.118 10.0421C112.088 10.1093 112.034 10.228 112 10.3429C111.971 10.444 111.916 10.6719 112.032 10.9024L112.034 10.9063C113.778 14.2979 114.305 16.1522 114.832 18.0255C115.369 19.933 115.906 21.8627 117.669 25.3468C119.422 28.812 120.491 30.4587 121.555 32.0968C122.608 33.7183 123.657 35.3314 125.388 38.753C127.124 42.1839 127.88 43.9499 128.635 45.7218C129.315 47.3179 129.994 48.9198 131.373 51.7237L130.647 51.2442L131.485 52.9171C133.782 57.5007 136.5 61.9159 136.5 67.1056C136.5 73.3392 133.964 79.0203 130.839 84.1192C127.72 89.2159 122.681 92.6578 117.457 95.5245C112.257 98.3778 106.933 100.367 100.593 100.367C93.8145 100.367 88.0854 98.8487 82.4775 95.5245C76.8259 92.1743 71.9075 88.1252 68.9463 82.4815L68.5039 81.6368L68.0605 82.4815C65.0607 88.2064 60.7447 93.8029 55.4014 96.9669C50.0064 100.161 43.1773 102.5 36.415 102.5C33.2911 102.5 30.4375 101.561 27.666 100.233C24.8695 98.8934 22.2434 97.2053 19.459 95.6817C14.022 92.7068 9.34022 89.0861 6.25977 84.0597C3.13072 78.9538 0.5 73.3345 0.5 67.1056C0.500094 62.049 2.19475 57.273 4.34277 52.8995C4.36375 52.9055 4.3892 52.915 4.41895 52.919C4.44745 52.9229 4.51012 52.9293 4.58691 52.9142C4.66668 52.8984 4.80825 52.8485 4.90723 52.7013L4.9248 52.6749L4.93945 52.6466C6.67744 49.1814 7.42446 47.3839 8.17188 45.5948C8.91427 43.8178 9.65761 42.0474 11.3926 38.6183C13.1273 35.1896 14.1208 33.5428 15.1172 31.8907C16.1206 30.2269 17.1271 28.5572 18.877 25.0987C20.6307 21.6324 21.3141 19.7939 21.999 17.9689C22.6561 16.2181 23.3164 14.4779 24.9541 11.2657C24.9712 11.2729 24.9896 11.2801 25.0088 11.2882C25.1188 11.3349 25.2758 11.4024 25.416 11.4415C25.4856 11.4609 25.5874 11.4845 25.6982 11.4815C25.8089 11.4785 26.0064 11.4456 26.1543 11.2696L26.1572 11.2647C29.7391 6.90592 33.5576 3.38181 38.3633 2.08697L38.3623 2.086ZM36.4297 41.0538C28.9623 41.0538 21.316 42.7138 16.2637 47.4298C11.0891 52.2528 8.40823 59.7577 8.4082 67.1134C8.4082 74.2547 11.1406 81.2962 16.0068 86.1056L16.4844 86.5646C21.4796 91.2269 28.8695 94.6895 36.4297 94.6896C43.969 94.6896 51.4077 91.5672 56.5498 86.7823C61.7142 81.9766 63.4172 74.5567 63.457 67.3214C63.4904 67.3065 63.5347 67.2883 63.5928 67.2647C63.6896 67.2256 63.8544 67.1614 63.9893 67.0704C64.1275 66.977 64.3519 66.7747 64.3447 66.4347V66.4317L64.3145 65.7521C63.8785 58.7675 59.6592 53.1057 54.8789 48.755C49.922 44.2436 44.0044 41.0538 36.4297 41.0538ZM100.608 41.7003C93.2234 41.7003 86.872 43.5888 81.7197 48.2823C76.6491 52.9015 71.9713 59.1054 71.7764 66.4093V66.4122C71.7698 66.7281 71.9605 66.9296 72.0957 67.0333C72.2226 67.1306 72.3778 67.2019 72.4658 67.2433C72.5191 67.2683 72.5585 67.2868 72.5879 67.3019C72.6329 74.6097 75.5466 81.8045 80.6777 86.5792C85.6725 91.2262 93.0553 94.6896 100.608 94.6896H101.108V94.6749C108.483 94.5403 115.715 91.4463 120.743 86.7599C125.946 81.9107 127.637 74.4001 127.637 67.1056C127.637 59.9927 125.466 53.3451 120.622 48.5489L120.145 48.0909L119.665 47.6583C114.645 43.2837 107.736 41.7003 100.608 41.7003ZM96.2227 8.67877C90.0058 7.25253 82.5913 9.15831 78.2734 13.8146C77.181 14.9924 76.7056 16.5025 76.4141 18.0118C76.2681 18.7675 76.1644 19.5448 76.0586 20.2901C75.9518 21.0421 75.8427 21.7654 75.6836 22.4454L75.6738 22.4845L75.6709 22.5255C75.3142 27.7144 74.5026 30.3009 73.9385 32.9542C73.3674 35.6405 73.0723 38.3181 73.7803 43.5733L73.917 44.586L74.6328 43.8575C77.9943 40.4344 81.9606 36.6839 86.2109 34.9103C90.4728 33.132 95.5804 32.6886 100.615 32.6886C105.61 32.6886 111.408 33.7519 115.703 35.5411L116.693 35.9542L116.372 34.9298C114.696 29.592 113.3 27.0735 111.642 24.6622C109.996 22.2693 108.143 20.0476 105.485 15.2062L105.461 15.1603L105.427 15.1212L104.97 14.5987C102.652 12.0015 99.8463 9.6398 96.8213 8.82721L96.2227 8.67877ZM57.6826 13.9669C53.23 9.48142 46.3799 7.16623 40.209 8.82721L40.208 8.82818C37.2035 9.64464 33.6375 11.6372 31.1875 14.2999L31.083 14.1964L30.7646 14.7784C29.4434 17.1903 28.2162 18.966 27.1289 20.4503C26.0501 21.9229 25.0744 23.152 24.3037 24.4132C22.721 27.0034 21.9799 29.7612 22.4248 35.3819L22.4785 36.0675L23.1143 35.8048C27.4203 34.0216 31.4378 33.2521 36.4219 33.2521C41.5078 33.2521 46.3966 33.0649 50.8281 34.9103C55.2572 36.7547 58.4586 40.3267 61.8359 43.7813L62.5518 44.5138L62.6895 43.4991C63.3935 38.2976 63.7028 35.6364 63.7422 32.962C63.7814 30.295 63.5511 27.6171 63.1924 22.3976L63.1895 22.3575L63.1807 22.3175L63.1104 22.0401C62.437 19.5485 60.5966 17.1784 58.8643 15.2403L58.1055 14.4083L57.6826 13.9669Z" fill="#F4F6E1" stroke="#F4F6E1"/>
<path d="M92.957 69.5C97.6654 69.5 101.5 73.413 101.5 78.042C101.5 82.6652 97.6789 86.5 92.957 86.5C88.2418 86.4999 84.5 82.664 84.5 78.042C84.5 73.4139 88.2477 69.5001 92.957 69.5Z" fill="#F4F6E1" stroke="#F4F6E1"/>
<path d="M26.6416 67.5C31.0406 67.5 34.5 71.0156 34.5 75.4492C34.4998 79.8903 31.0257 83.5 26.6416 83.5C22.236 83.4998 18.5002 79.8684 18.5 75.4492C18.5 71.0374 22.2209 67.5002 26.6416 67.5Z" fill="#F4F6E1" stroke="#F4F6E1"/>
</g>
<defs>
<clipPath id="clip0_251_13">
<rect width="137" height="103" fill="white"/>
</clipPath>
</defs>
</svg>
