<svg width="137" height="103" viewBox="0 0 137 103" fill="none" xmlns="http://www.w3.org/2000/svg">
<path d="M38.3623 2.08594C43.0261 0.83786 48.0913 -0.171438 52.3828 1.05566C54.4726 1.65332 56.1882 3.05157 57.8105 4.78516C58.6206 5.65076 59.397 6.5877 60.1826 7.53906C60.9646 8.48605 61.7563 9.44784 62.584 10.3408L62.585 10.3418C64.5153 12.4228 66.9751 15.0447 68.0625 17.4756L68.5186 18.4961L68.9756 17.4756C70.0695 15.03 72.3403 12.2025 74.2412 10.1533H74.2422C75.888 8.37348 77.4518 6.55355 79.168 5.00586C80.8762 3.46541 82.6962 2.23268 84.8145 1.62695C89.1158 0.397023 93.9425 1.16061 98.5762 2.41016H98.5771C103.46 3.72389 108.642 5.84983 112.131 10.0107C112.127 10.0203 112.123 10.0311 112.118 10.042C112.088 10.1092 112.034 10.2279 112 10.3428C111.971 10.4439 111.916 10.6718 112.032 10.9023L112.034 10.9062C113.778 14.2978 114.305 16.1521 114.832 18.0254C115.369 19.9329 115.906 21.8626 117.669 25.3467C119.422 28.8119 120.491 30.4586 121.555 32.0967C122.608 33.7182 123.657 35.3313 125.388 38.7529C127.124 42.1838 127.88 43.9498 128.635 45.7217C129.315 47.3178 129.994 48.9197 131.373 51.7236L130.647 51.2441L131.485 52.917C133.782 57.5006 136.5 61.9158 136.5 67.1055C136.5 73.3391 133.964 79.0202 130.839 84.1191V84.1201C127.72 89.2168 122.681 92.6577 117.457 95.5244C112.257 98.3777 106.933 100.367 100.593 100.367C93.8145 100.367 88.0854 98.8486 82.4775 95.5244C76.8259 92.1742 71.9075 88.1251 68.9463 82.4814L68.5039 81.6367L68.0605 82.4814C65.0607 88.2063 60.7447 93.8028 55.4014 96.9668C50.0064 100.161 43.1773 102.5 36.415 102.5C33.2911 102.5 30.4375 101.561 27.666 100.233C24.8695 98.8933 22.2434 97.2052 19.459 95.6816C14.022 92.7067 9.34022 89.086 6.25977 84.0596C3.13072 78.9537 0.5 73.3344 0.5 67.1055C0.500094 62.0489 2.19475 57.2729 4.34277 52.8994C4.36375 52.9054 4.3892 52.9149 4.41895 52.9189C4.44745 52.9228 4.51012 52.9292 4.58691 52.9141C4.66668 52.8983 4.80825 52.8484 4.90723 52.7012L4.9248 52.6748L4.93945 52.6465C6.67744 49.1813 7.42446 47.3838 8.17188 45.5947C8.91427 43.8177 9.65761 42.0473 11.3926 38.6182C13.1273 35.1895 14.1208 33.5427 15.1172 31.8906C16.1206 30.2268 17.1271 28.5571 18.877 25.0986C20.6307 21.6323 21.3141 19.7938 21.999 17.9688C22.6561 16.218 23.3164 14.4778 24.9541 11.2656C24.9712 11.2728 24.9896 11.28 25.0088 11.2881C25.1188 11.3348 25.2758 11.4023 25.416 11.4414C25.4856 11.4608 25.5874 11.4844 25.6982 11.4814C25.8089 11.4784 26.0064 11.4455 26.1543 11.2695L26.1572 11.2646C29.7391 6.90586 33.5576 3.38175 38.3633 2.08691L38.3623 2.08594ZM36.4297 41.0537C28.9623 41.0537 21.316 42.7137 16.2637 47.4297C11.0891 52.2527 8.40823 59.7576 8.4082 67.1133C8.4082 74.2546 11.1406 81.2961 16.0068 86.1055L16.4844 86.5645C21.4796 91.2268 28.8695 94.6894 36.4297 94.6895C43.969 94.6895 51.4077 91.5671 56.5498 86.7822C61.7142 81.9765 63.4172 74.5566 63.457 67.3213C63.4904 67.3064 63.5347 67.2882 63.5928 67.2646C63.6896 67.2255 63.8544 67.1613 63.9893 67.0703C64.1275 66.9769 64.3519 66.7746 64.3447 66.4346V66.4316L64.3145 65.752C63.8785 58.7674 59.6592 53.1056 54.8789 48.7549C49.922 44.2435 44.0044 41.0537 36.4297 41.0537ZM100.608 41.7002C93.2234 41.7002 86.872 43.5887 81.7197 48.2822C76.6491 52.9014 71.9713 59.1053 71.7764 66.4092V66.4121C71.7698 66.728 71.9605 66.9295 72.0957 67.0332C72.2226 67.1305 72.3778 67.2018 72.4658 67.2432C72.5191 67.2682 72.5585 67.2867 72.5879 67.3018C72.6329 74.6096 75.5466 81.8044 80.6777 86.5791C85.6725 91.2261 93.0553 94.6895 100.608 94.6895H101.108V94.6748C108.483 94.5402 115.715 91.4462 120.743 86.7598C125.946 81.9106 127.637 74.4 127.637 67.1055C127.637 59.9926 125.466 53.345 120.622 48.5488L120.145 48.0908L119.665 47.6582C114.645 43.2836 107.736 41.7002 100.608 41.7002ZM96.2227 8.67871C90.0058 7.25247 82.5913 9.15825 78.2734 13.8145C77.181 14.9923 76.7056 16.5024 76.4141 18.0117C76.2681 18.7674 76.1644 19.5447 76.0586 20.29C75.9518 21.042 75.8427 21.7653 75.6836 22.4453L75.6738 22.4844L75.6709 22.5254C75.3142 27.7143 74.5026 30.3008 73.9385 32.9541C73.3674 35.6404 73.0723 38.318 73.7803 43.5732L73.917 44.5859L74.6328 43.8574C77.9943 40.4343 81.9606 36.6838 86.2109 34.9102C90.4728 33.1319 95.5804 32.6885 100.615 32.6885C105.61 32.6885 111.408 33.7518 115.703 35.541L116.693 35.9541L116.372 34.9297C114.696 29.5919 113.3 27.0734 111.642 24.6621C109.996 22.2692 108.143 20.0475 105.485 15.2061L105.461 15.1602L105.427 15.1211L104.97 14.5986C102.652 12.0014 99.8463 9.63974 96.8213 8.82715L96.2227 8.67871ZM57.6826 13.9668C53.23 9.48136 46.3799 7.16617 40.209 8.82715L40.208 8.82812C37.2035 9.64458 33.6375 11.6371 31.1875 14.2998L31.083 14.1963L30.7646 14.7783C29.4434 17.1902 28.2162 18.9659 27.1289 20.4502C26.0501 21.9228 25.0744 23.1519 24.3037 24.4131C22.721 27.0033 21.9799 29.7611 22.4248 35.3818L22.4785 36.0674L23.1143 35.8047C27.4203 34.0215 31.4378 33.252 36.4219 33.252C41.5078 33.252 46.3966 33.0648 50.8281 34.9102C55.2572 36.7546 58.4586 40.3266 61.8359 43.7812L62.5518 44.5137L62.6895 43.499C63.3935 38.2975 63.7028 35.6363 63.7422 32.9619C63.7814 30.2949 63.5511 27.617 63.1924 22.3975L63.1895 22.3574L63.1807 22.3174L63.1104 22.04C62.437 19.5484 60.5966 17.1783 58.8643 15.2402L58.1055 14.4082L57.6826 13.9668Z" fill="#74A6AC" stroke="#74A6AC"/>
<path d="M92.957 69.5C97.6654 69.5 101.5 73.413 101.5 78.042C101.5 82.6652 97.6789 86.5 92.957 86.5C88.2418 86.4999 84.5 82.664 84.5 78.042C84.5 73.4139 88.2477 69.5001 92.957 69.5Z" fill="#74A6AC" stroke="#74A6AC"/>
<path d="M26.6416 67.5C31.0406 67.5 34.5 71.0156 34.5 75.4492C34.4998 79.8903 31.0257 83.5 26.6416 83.5C22.236 83.4998 18.5002 79.8684 18.5 75.4492C18.5 71.0374 22.2209 67.5002 26.6416 67.5Z" fill="#74A6AC" stroke="#74A6AC"/>
</svg>
