<svg width="127" height="108" viewBox="0 0 127 108" fill="none" xmlns="http://www.w3.org/2000/svg">
<path d="M28.2598 0.59375C44.7155 -0.651184 56.8871 10.7021 62.8779 21.8359L63.3184 22.6543L63.7578 21.8359C69.729 10.7385 81.7757 0.990303 98.2451 2.22852V2.22949C99.4024 2.31984 100.268 1.65105 100.731 1.36133C100.823 1.30409 100.893 1.26618 100.946 1.24023C100.955 1.25999 100.968 1.28147 100.978 1.30859L101.047 1.55957C101.937 5.49195 101.287 7.61252 100.765 9.77246C100.5 10.8673 100.262 11.9929 100.295 13.3457C100.328 14.7001 100.631 16.2552 101.408 18.2305L101.507 18.4814L101.771 18.5361C108.608 19.97 115.978 22.6235 122.683 27.4316L123.374 27.9434C123.61 28.1178 123.828 28.245 124.007 28.3477C124.195 28.4559 124.315 28.5242 124.41 28.5996C124.494 28.6655 124.542 28.7247 124.575 28.7979C124.602 28.8575 124.629 28.9459 124.642 29.083L124.649 29.2373C124.78 38.9162 125.049 43.7588 125.286 48.5947C125.523 53.4231 125.727 58.2499 125.727 67.9102C125.727 86.7487 127.992 87.5355 124.771 104.759L124.441 106.479C124.348 106.959 124.232 107.234 124.129 107.377C124.043 107.497 123.989 107.5 123.951 107.5C123.872 107.5 123.722 107.459 123.479 107.302C123.245 107.149 122.975 106.92 122.668 106.623C122.049 106.025 121.361 105.235 120.586 104.399C119.825 103.58 118.993 102.732 118.131 102.086H118.13C112.784 98.0725 104.218 92.145 91.7979 93.0557C84.0858 93.6275 75.6139 97.3206 65.665 103.735C65.3759 103.92 65.144 104.086 64.9521 104.221C64.7557 104.358 64.6082 104.458 64.4619 104.536C64.198 104.677 63.9051 104.765 63.3096 104.765C62.7495 104.765 62.5023 104.649 62.2686 104.482C62.1261 104.381 61.9959 104.264 61.7939 104.097C61.6008 103.936 61.3685 103.753 61.0664 103.56C51.0689 97.1137 42.401 94.8371 34.7334 94.2686C22.3704 93.3533 13.4305 97.3893 8.01758 101.453C7.1435 102.107 6.32558 103.004 5.58984 103.89C5.22023 104.334 4.86477 104.784 4.53223 105.203C4.19768 105.625 3.88754 106.016 3.59766 106.354C3.30613 106.695 3.04834 106.966 2.82324 107.157C2.58628 107.358 2.44169 107.419 2.37598 107.429C2.36513 107.43 2.36006 107.43 2.35938 107.43H2.36035L2.36133 107.431C2.36123 107.431 2.3597 107.43 2.35742 107.429C2.35511 107.427 2.35165 107.424 2.34668 107.42C2.33644 107.411 2.3208 107.395 2.30078 107.368C2.23362 107.278 2.15322 107.111 2.07715 106.827L2.00391 106.504C0.162167 97.0669 0.303443 92.2827 0.898438 87.4551C1.49706 82.5981 2.56934 77.6206 2.56934 67.9102C2.56932 48.5096 1.64703 48.588 2.46387 29.2686V29.2676C2.48736 28.6973 2.50241 28.5171 2.56348 28.3818C2.61397 28.2702 2.71893 28.1471 3.14844 27.8291L3.15039 27.8281C10.0594 22.6808 16.8421 19.6277 23.8916 18.1494L24.1553 18.0947L24.2539 17.8438C25.0278 15.8778 25.3817 14.3551 25.4961 13.0449C25.6106 11.7336 25.4833 10.6576 25.3232 9.60352C25.0083 7.52943 24.5559 5.48001 25.4502 1.52637C25.5511 1.08757 25.6648 0.871384 25.7617 0.760742C25.8412 0.670134 25.936 0.619099 26.1104 0.59375C26.3121 0.564472 26.5626 0.576386 26.9424 0.594727C27.305 0.612239 27.7478 0.631338 28.2588 0.59375H28.2598ZM25.0361 25.8799C20.1511 27.155 13.8588 29.5484 8.91895 32.9863L8.74316 33.1084L8.71094 33.3213C7.62739 40.4319 7.70721 44.0779 8.06348 47.7471C8.41752 51.3933 9.03515 55.0018 9.03516 62.126C9.03516 69.2417 7.91382 72.9382 7.4375 76.6689C6.95776 80.4267 7.17657 84.0406 9.87109 90.7344L10.0781 91.249L10.5684 90.9902C19.9754 86.0108 33.7273 81.9639 51.7139 89.0703L52.2109 88.2158C48.5426 85.2564 44.0427 82.6442 39.752 80.7344C35.4716 78.8292 31.3491 77.6009 28.4385 77.4512H28.4395C27.8458 77.4194 27.2384 77.5854 26.6963 77.7832C26.1741 77.9737 25.5922 78.2437 25.1768 78.4102C24.952 78.5002 24.7562 78.5692 24.5879 78.6113C24.4162 78.6543 24.3031 78.6614 24.2334 78.6523C24.1777 78.6451 24.1636 78.631 24.1533 78.6191C24.1385 78.6021 24.1085 78.556 24.082 78.4541L24.0576 78.333C23.1023 71.9669 23.1263 68.7345 23.3848 65.4883C23.6447 62.224 24.1504 58.8819 24.1504 52.3857C24.1504 45.9784 25.1395 42.7024 25.834 39.3848C26.5378 36.0223 26.9187 32.6837 25.6533 26.2666L25.5498 25.7451L25.0361 25.8799ZM102.548 26.583C101.289 32.9783 101.264 36.2224 101.562 39.5039C101.859 42.764 102.46 45.9764 102.46 52.4297C102.46 65.4009 102.928 65.4079 100.953 78.1729V78.1738C100.933 78.3064 100.91 78.4033 100.89 78.4727C100.839 78.4434 100.777 78.4049 100.7 78.3535C100.21 78.024 99.3008 77.2869 98.0967 77.3184C94.4678 77.4137 89.9696 79.0061 85.5566 81.3086C81.1317 83.6173 76.7362 86.6697 73.3018 89.7441L73.8271 90.5781C92.4084 82.8162 106.454 85.9028 116.05 90.9814L116.358 90.5645L116.737 90.7217C119.493 84.0664 119.875 80.4845 119.324 76.7324C119.054 74.889 118.556 72.9985 118.037 70.7227C117.516 68.435 116.96 65.7107 116.555 62.1396C115.76 55.1065 116.593 51.5062 117.365 47.875C118.15 44.1881 118.867 40.4819 117.777 33.3301L117.745 33.1172L117.568 32.9941C112.649 29.5791 108.075 27.4783 103.164 26.1963L102.65 26.0615L102.548 26.583ZM33.21 9.50586L32.8555 9.24707L32.8467 9.25586L32.0928 10.0186L32.416 10.0439C29.1428 16.464 28.7352 20.2323 29.4668 24.2158C29.8378 26.2359 30.5043 28.3184 31.1924 30.7852C31.8843 33.2659 32.6156 36.1873 33.1416 39.9531C34.1901 47.4592 33.2696 51.3223 32.5254 55.2031C31.7693 59.1463 31.2049 63.0762 33.0381 70.6045L33.1113 70.9062L33.4141 70.9746C41.2154 72.7194 52.1178 78.6315 59.4971 85.3271L60.0225 85.8037L60.2949 85.1484C61.4871 82.2727 62.0922 80.0143 62.3193 78.0459C62.547 76.0732 62.3916 74.4141 62.0898 72.7451C61.4868 69.4099 60.3243 66.1059 60.3242 59.999C60.3242 47.662 60.3583 47.6386 59.9844 35.2979V35.2764L59.9814 35.2559L59.9258 34.8223C59.2806 30.3001 56.5507 24.3207 52.1299 19.2666C47.5595 14.0414 41.1334 9.75133 33.2422 9.10938L33.21 9.50586ZM93.3672 9.10938C85.4742 9.74749 79.3488 14.0521 75.0801 19.2939C70.8174 24.5283 68.3694 30.7398 67.8447 35.291L67.8428 35.3115L67.8418 35.333C67.4678 47.5438 67.7461 47.5541 67.7461 59.7432C67.7461 65.7582 66.2785 69.0109 65.333 72.2852C64.8586 73.9281 64.5193 75.5735 64.5967 77.5391C64.674 79.502 65.1652 81.7553 66.3125 84.624L66.584 85.3018L67.1182 84.8037C74.1521 78.2371 85.9692 72.7211 94.5898 71.1982L94.9023 71.1436L94.9854 70.8369C97.0011 63.3996 96.9294 59.4645 96.3408 55.458C95.7571 51.4851 94.6905 47.5459 94.6904 39.9463C94.6904 32.3547 96.2524 28.2561 96.9619 24.1904C97.3164 22.1588 97.4481 20.1608 97.0293 17.8057C96.6117 15.4573 95.6519 12.7795 93.8594 9.375L93.7188 9.10742H93.3877L93.3672 9.10938ZM62.8096 35.0469L63.0586 35.1914L63.5889 35.499L64.8438 36.2275L64.3037 34.8799L64.3027 34.8789C64.3024 34.8782 64.3022 34.877 64.3018 34.876C64.3009 34.8739 64.3001 34.8713 64.2988 34.8682C64.2961 34.8615 64.2919 34.8519 64.2871 34.8408C64.2776 34.8188 64.2639 34.7887 64.2471 34.7529C64.2137 34.6819 64.1642 34.5828 64.1025 34.4814C64.0433 34.384 63.9603 34.2628 63.8555 34.1602C63.7626 34.0694 63.5748 33.9161 63.3096 33.916H62.8096V35.0469Z" fill="#74A6AC" stroke="#74A6AC"/>
</svg>
