<svg id="Calque_1" data-name="Calque 1" xmlns="http://www.w3.org/2000/svg" viewBox="0 0 129.5 144.61"><defs><style>.cls-1{fill:none;stroke:#1d1d1b;stroke-width:10px;}</style></defs><path class="cls-1" d="M265.48,354h.64A38.1,38.1,0,0,1,285,359.4a38.69,38.69,0,0,1,14.14,14.7l3.15,5.75,4.71-4.56a23.72,23.72,0,0,1,15.88-6.67h17.32v16.93a24.37,24.37,0,0,1-7.06,17.14h0a23.92,23.92,0,0,1-16.95,7.1H304v46.55h53.88v4.58L238.37,460v-3.7h61.11V409.78H287.24A38.4,38.4,0,0,1,260,398.4a39.14,39.14,0,0,1-11.29-26.52V354Zm58,19.24A19.47,19.47,0,0,0,309.69,379a19.71,19.71,0,0,0-5.7,13.85v12.32h12.25A19.44,19.44,0,0,0,330,399.39a19.68,19.68,0,0,0,5.71-13.85V373.23Zm-24,19.61a34.39,34.39,0,0,0-10-24.18,33.93,33.93,0,0,0-24-10.05H253.23v12.32a34.43,34.43,0,0,0,10,24.18,33.93,33.93,0,0,0,24.05,10.05h12.25Z" transform="translate(-233.37 -348.99)"/><path class="cls-1" d="M357.37,484v4.58l-117-.93V484Z" transform="translate(-233.37 -348.99)"/></svg>