<svg xmlns="http://www.w3.org/2000/svg" version="1.1" xmlns:xlink="http://www.w3.org/1999/xlink" width="1000" height="1000"><g clip-path="url(#SvgjsClipPath1108)"><rect width="1000" height="1000" fill="#ffffff"></rect><g transform="matrix(2.8225806451612905,0,0,2.8225806451612905,150,150)"><svg xmlns="http://www.w3.org/2000/svg" version="1.1" xmlns:xlink="http://www.w3.org/1999/xlink" width="248" height="248"><svg width="248" height="248" viewBox="0 0 248 248" fill="none" xmlns="http://www.w3.org/2000/svg">
<path d="M23.5234 144.921C44.4977 138.488 46.5721 119.693 49.5684 96.7355C53.8324 63.3087 94.7437 17.7726 149.599 62.9303C111.339 73.0214 104.194 117.927 127.242 127.387C150.291 136.848 170.919 104.556 203.187 129.658C210.969 137.472 220.587 142.757 230.961 144.921" stroke="#426266" stroke-width="16" stroke-linecap="round" stroke-linejoin="round"></path>
<path d="M17 203.447C46.1507 203.447 68.0137 171.613 68.0137 171.613C68.0137 171.613 89.8767 203.447 119.028 203.447C148.178 203.447 177.329 171.613 177.329 171.613C177.329 171.613 206.479 203.447 228.342 203.447" stroke="#426266" stroke-width="18" stroke-linecap="round" stroke-linejoin="round"></path>
</svg></svg></g></g><defs><clipPath id="SvgjsClipPath1108"><rect width="1000" height="1000" x="0" y="0" rx="500" ry="500"></rect></clipPath></defs></svg>